<?xml version="1.0" standalone="no"?>
<!DOCTYPE svg PUBLIC "-//W3C//DTD SVG 20010904//EN"
 "http://www.w3.org/TR/2001/REC-SVG-20010904/DTD/svg10.dtd">
<svg version="1.0" xmlns="http://www.w3.org/2000/svg"
 width="2400.000000pt" height="2400.000000pt" viewBox="0 0 2400.000000 2400.000000"
 preserveAspectRatio="xMidYMid meet">

<g transform="translate(0.000000,2400.000000) scale(0.100000,-0.100000)"
fill="#000000" stroke="none">
<path d="M1606 14014 c-172 -34 -337 -116 -442 -219 -108 -107 -104 -79 -104
-646 0 -577 -4 -552 119 -701 44 -53 94 -108 113 -122 18 -15 195 -122 393
-239 408 -241 395 -229 414 -370 14 -97 15 -1235 1 -1291 -13 -58 -39 -87
-105 -121 -56 -28 -68 -30 -170 -30 -153 0 -222 26 -271 100 -16 24 -20 53
-24 175 l-5 145 -232 3 -233 2 0 -167 c1 -182 7 -214 57 -285 64 -93 260 -208
423 -248 108 -27 314 -37 432 -21 261 35 482 147 563 285 14 24 29 72 35 111
12 88 13 1203 0 1342 -11 126 -40 192 -120 274 -37 38 -181 142 -435 314 -209
141 -397 274 -417 297 -66 70 -68 90 -68 546 0 354 2 408 16 439 36 74 131
113 274 113 140 0 226 -36 268 -114 13 -25 17 -66 20 -209 l4 -177 231 2 232
3 0 220 c0 219 0 220 -27 275 -71 145 -289 270 -552 315 -107 18 -296 18 -390
-1z"/>
<path d="M13853 14019 c-230 -38 -483 -189 -546 -326 l-22 -48 0 -1650 0
-1650 27 -51 c52 -99 186 -200 348 -261 134 -50 248 -66 415 -59 77 3 152 8
168 12 l27 6 0 138 0 138 -172 4 c-104 3 -187 10 -208 18 -55 20 -101 59 -121
104 -18 39 -19 89 -19 1174 l0 1132 230 0 230 0 -2 168 -3 167 -227 3 -228 2
0 248 c0 237 1 250 23 292 24 48 67 83 126 101 20 6 111 14 204 16 l167 5 0
153 0 153 -75 11 c-87 13 -266 13 -342 0z"/>
<path d="M17963 14020 c-236 -43 -474 -185 -543 -325 l-25 -50 0 -1645 0
-1645 28 -57 c69 -141 288 -272 522 -313 111 -19 283 -19 401 0 223 36 414
129 498 243 72 98 67 -36 64 1787 l-3 1640 -24 48 c-61 125 -233 235 -459 293
-78 21 -127 26 -252 29 -85 2 -178 0 -207 -5z m372 -355 c47 -24 64 -39 82
-74 l23 -44 0 -1558 c0 -1074 -3 -1566 -11 -1586 -17 -45 -68 -91 -123 -110
-79 -28 -254 -24 -324 6 -60 27 -97 66 -112 119 -14 51 -14 3083 0 3134 6 21
22 51 37 68 51 61 115 80 263 77 95 -2 111 -5 165 -32z"/>
<path d="M20260 14011 c-125 -27 -235 -73 -337 -141 -97 -64 -140 -109 -176
-187 l-22 -48 -3 -1832 -2 -1833 235 0 235 0 0 1773 c0 1205 3 1784 11 1810
14 52 61 102 117 124 60 23 268 26 322 4 59 -24 91 -52 111 -95 18 -39 19
-107 19 -1828 l0 -1788 235 0 235 0 0 1823 c0 1583 -2 1830 -15 1873 -42 141
-220 265 -475 331 -133 35 -367 41 -490 14z"/>
<path d="M22545 14023 c-229 -32 -495 -182 -565 -319 l-25 -49 -3 -1639 c-1
-1065 1 -1651 8 -1675 27 -100 123 -192 285 -271 149 -74 245 -94 440 -95 88
0 181 4 208 8 l47 8 0 140 0 139 -139 0 c-224 0 -315 28 -358 109 l-23 44 0
1139 0 1138 225 0 225 0 0 170 0 170 -225 0 -225 0 0 258 c0 242 1 259 21 291
51 85 104 102 327 109 l172 4 0 153 0 153 -75 11 c-72 10 -256 13 -320 4z"/>
<path d="M3684 13873 c-70 -79 -123 -148 -118 -152 5 -5 49 -18 99 -30 143
-35 303 -90 395 -134 105 -51 203 -143 248 -234 34 -66 69 -179 59 -189 -3 -3
-30 -1 -59 6 -86 18 -246 24 -343 11 -124 -16 -224 -45 -330 -95 -150 -71
-234 -147 -272 -244 -17 -44 -18 -114 -18 -1252 l0 -1205 24 -53 c45 -100 183
-206 351 -268 212 -80 501 -86 731 -15 53 17 65 18 71 6 5 -7 23 -23 42 -34
31 -20 48 -21 272 -21 236 0 239 0 209 18 -62 38 -117 119 -161 237 -18 48
-19 114 -25 1380 -6 1475 -3 1403 -74 1682 -81 314 -161 416 -430 548 -134 65
-278 116 -448 159 l-97 24 -126 -145z m599 -1097 c38 -18 64 -39 79 -64 l23
-37 3 -1110 c2 -998 1 -1114 -13 -1152 -35 -92 -122 -127 -299 -121 -134 4
-191 26 -234 91 l-27 41 -3 1090 c-2 600 0 1110 3 1134 4 27 17 55 37 78 58
66 119 84 269 80 92 -2 114 -6 162 -30z"/>
<path d="M5735 13971 c65 -40 114 -117 159 -245 21 -61 21 -65 24 -1908 l2
-1848 235 0 235 0 0 1768 0 1768 23 44 c18 36 34 51 81 75 56 28 66 30 180 30
110 0 126 -2 178 -27 41 -19 65 -38 85 -69 l28 -43 3 -1768 2 -1768 235 0 235
0 0 1774 0 1773 23 34 c50 74 150 106 306 96 99 -6 164 -26 205 -65 60 -56 56
65 56 -1857 l0 -1765 235 0 235 0 -2 1823 c-3 1570 -5 1826 -18 1852 -48 99
-122 167 -256 234 -277 138 -663 147 -938 22 -38 -17 -74 -31 -81 -31 -7 0
-42 13 -78 30 -222 101 -545 118 -792 42 l-60 -18 -43 33 -44 33 -241 0 c-240
0 -242 0 -212 -19z"/>
<path d="M9847 13975 c-200 -38 -427 -157 -500 -262 -61 -89 -57 59 -57 -1928
l0 -1815 230 0 230 0 0 431 0 431 63 -9 c34 -4 141 -8 237 -8 146 1 189 4 263
23 246 62 425 184 473 324 12 38 14 208 12 1253 l-3 1210 -30 54 c-16 29 -54
76 -85 103 -70 63 -248 151 -360 179 -113 28 -360 35 -473 14z m341 -320 c61
-18 110 -57 128 -102 21 -48 21 -2248 0 -2296 -17 -43 -66 -83 -119 -99 -66
-20 -252 -17 -314 5 -60 21 -107 68 -122 124 -15 53 -15 2183 0 2236 15 57 65
105 129 127 70 24 224 27 298 5z"/>
<path d="M15150 13825 l0 -165 455 0 455 0 -5 -22 c-3 -13 -206 -841 -450
-1842 -245 -1000 -445 -1820 -445 -1822 0 -2 342 -4 760 -4 l761 0 -3 158 -3
157 -465 5 -466 5 446 1820 c246 1001 450 1832 453 1848 l7 27 -750 0 -750 0
0 -165z"/>
<path d="M11573 12468 c3 -1640 1 -1568 57 -1793 37 -147 114 -280 223 -382
66 -63 202 -153 294 -195 65 -30 285 -110 289 -105 1 1 28 72 59 157 32 85 60
161 62 168 3 6 0 12 -7 12 -25 0 -205 92 -256 130 -88 66 -163 198 -204 360
-53 209 -53 196 -57 1733 l-4 1427 -230 0 -230 0 4 -1512z"/>
</g>
</svg>
